<?xml version="1.0" standalone="no"?>
<!DOCTYPE svg PUBLIC "-//W3C//DTD SVG 20010904//EN"
 "http://www.w3.org/TR/2001/REC-SVG-20010904/DTD/svg10.dtd">
<svg version="1.0" xmlns="http://www.w3.org/2000/svg"
 width="905.000000pt" height="1280.000000pt" viewBox="0 0 905.000000 1280.000000"
 preserveAspectRatio="xMidYMid meet">
<metadata>
Created by potrace 1.15, written by Peter Selinger 2001-2017
</metadata>
<g transform="translate(0.000000,1280.000000) scale(0.100000,-0.100000)"
fill="#000000" stroke="none">
<path d="M843 11581 c-101 -34 -169 -98 -218 -202 l-25 -54 0 -4925 0 -4925
30 -63 c20 -44 54 -87 113 -145 97 -98 150 -131 232 -147 44 -8 1040 -10 3695
-8 l3635 3 67 33 c83 41 158 120 187 197 l21 56 0 4914 0 4914 -22 58 c-17 47
-39 76 -122 159 -63 63 -120 110 -151 125 l-50 24 -3670 2 c-3512 2 -3672 2
-3722 -16z"/>
</g>
</svg>
